<svg xmlns="http://www.w3.org/2000/svg" width="633" height="282" viewBox="0 0 633 282" version="1.1"><path d="M 73.500 14.100 C 49.340 17.549, 29.587 31.095, 19.398 51.202 C 15.627 58.642, 16.628 58.239, 20.766 50.651 C 31.155 31.597, 46.997 20.505, 71 15.477 C 72.925 15.074, 82.600 14.430, 92.500 14.045 C 110.500 13.346, 110.500 13.346, 95 13.295 C 86.475 13.267, 76.800 13.629, 73.500 14.100 M 185.500 14.031 C 212.109 15.061, 229.035 20.037, 241 30.346 C 243.500 32.500, 243.500 32.500, 241.306 29.995 C 232.072 19.453, 208.862 12.868, 182 13.171 C 167.500 13.334, 167.500 13.334, 185.500 14.031 M 244 32.487 C 244 32.890, 246.253 35.685, 249.008 38.699 C 251.762 41.712, 255.842 47.850, 258.075 52.339 C 260.308 56.828, 261.822 59.375, 261.438 58 C 259.363 50.559, 244 28.083, 244 32.487 M 112.083 36.364 C 112.313 36.565, 130.050 36.931, 151.500 37.178 C 172.950 37.425, 186.675 37.306, 182 36.913 C 173.347 36.186, 111.323 35.699, 112.083 36.364 M 93.287 37.740 C 96.469 37.939, 101.419 37.937, 104.287 37.736 C 107.154 37.535, 104.550 37.372, 98.500 37.374 C 92.450 37.376, 90.104 37.541, 93.287 37.740 M 77.250 38.689 C 78.213 38.941, 79.787 38.941, 80.750 38.689 C 81.713 38.438, 80.925 38.232, 79 38.232 C 77.075 38.232, 76.287 38.438, 77.250 38.689 M 197.762 38.707 C 199.006 38.946, 200.806 38.937, 201.762 38.687 C 202.718 38.437, 201.700 38.241, 199.500 38.252 C 197.300 38.263, 196.518 38.468, 197.762 38.707 M 71.813 39.683 C 72.534 39.972, 73.397 39.936, 73.729 39.604 C 74.061 39.272, 73.471 39.036, 72.417 39.079 C 71.252 39.127, 71.015 39.364, 71.813 39.683 M 206 40 C 209.419 41.095, 212.048 41.095, 209.500 40 C 208.400 39.527, 206.600 39.154, 205.500 39.170 C 203.892 39.194, 203.990 39.356, 206 40 M 67.813 40.683 C 68.534 40.972, 69.397 40.936, 69.729 40.604 C 70.061 40.272, 69.471 40.036, 68.417 40.079 C 67.252 40.127, 67.015 40.364, 67.813 40.683 M 65 41.500 C 65 41.775, 65.225 42, 65.500 42 C 65.775 42, 66 41.775, 66 41.500 C 66 41.225, 65.775 41, 65.500 41 C 65.225 41, 65 41.225, 65 41.500 M 212 41.500 C 212 41.775, 212.225 42, 212.500 42 C 212.775 42, 213 41.775, 213 41.500 C 213 41.225, 212.775 41, 212.500 41 C 212.225 41, 212 41.225, 212 41.500 M 62.333 42.667 C 62.700 43.033, 63.300 43.033, 63.667 42.667 C 64.033 42.300, 63.733 42, 63 42 C 62.267 42, 61.967 42.300, 62.333 42.667 M 217.500 43.867 C 219.700 44.870, 222.963 46.925, 224.750 48.434 C 226.537 49.943, 228 50.722, 228 50.166 C 228 48.867, 217.053 41.993, 215.031 42.022 C 214.189 42.034, 215.300 42.864, 217.500 43.867 M 60 43.500 C 60 43.775, 60.225 44, 60.500 44 C 60.775 44, 61 43.775, 61 43.500 C 61 43.225, 60.775 43, 60.500 43 C 60.225 43, 60 43.225, 60 43.500 M 58 44.500 C 58 44.775, 58.225 45, 58.500 45 C 58.775 45, 59 44.775, 59 44.500 C 59 44.225, 58.775 44, 58.500 44 C 58.225 44, 58 44.225, 58 44.500 M 51.967 48.528 C 49.644 50.468, 46.813 53.281, 45.675 54.778 C 44.538 56.275, 46.508 54.823, 50.053 51.551 C 53.599 48.279, 56.688 45.467, 56.917 45.301 C 57.146 45.135, 57.076 45, 56.761 45 C 56.447 45, 54.289 46.588, 51.967 48.528 M 229 51.500 C 229 51.775, 229.225 52, 229.500 52 C 229.775 52, 230 51.775, 230 51.500 C 230 51.225, 229.775 51, 229.500 51 C 229.225 51, 229 51.225, 229 51.500 M 231.500 55 C 232.495 56.100, 233.535 57, 233.810 57 C 234.085 57, 233.495 56.100, 232.500 55 C 231.505 53.900, 230.465 53, 230.190 53 C 229.915 53, 230.505 53.900, 231.500 55 M 199.241 58.995 C 196.123 60.896, 191.963 66.393, 192.048 68.500 C 192.070 69.050, 192.989 67.793, 194.090 65.708 C 199.765 54.954, 216.087 55.375, 221.096 66.405 C 222.119 68.657, 222.964 69.825, 222.974 69 C 223.082 60.126, 207.890 53.721, 199.241 58.995 M 16 59 C 16 59.733, 16.300 60.033, 16.667 59.667 C 17.033 59.300, 17.033 58.700, 16.667 58.333 C 16.300 57.967, 16 58.267, 16 59 M 42 60 C 41.411 61.100, 41.155 62, 41.430 62 C 41.705 62, 42.411 61.100, 43 60 C 43.589 58.900, 43.845 58, 43.570 58 C 43.295 58, 42.589 58.900, 42 60 M 234.500 59 C 234.840 59.550, 235.343 60, 235.618 60 C 235.893 60, 235.840 59.550, 235.500 59 C 235.160 58.450, 234.657 58, 234.382 58 C 234.107 58, 234.160 58.450, 234.500 59 M 15 62 C 15 62.733, 15.300 63.033, 15.667 62.667 C 16.033 62.300, 16.033 61.700, 15.667 61.333 C 15.300 60.967, 15 61.267, 15 62 M 236.564 62.293 C 236.940 63.279, 237.499 63.834, 237.807 63.526 C 238.115 63.219, 237.808 62.412, 237.124 61.733 C 236.136 60.753, 236.022 60.868, 236.564 62.293 M 262 62 C 262 62.733, 262.300 63.033, 262.667 62.667 C 263.033 62.300, 263.033 61.700, 262.667 61.333 C 262.300 60.967, 262 61.267, 262 62 M 39.624 64.539 C 38.659 67.053, 38.943 67.702, 40.122 65.675 C 40.706 64.671, 40.973 63.639, 40.715 63.382 C 40.458 63.124, 39.966 63.645, 39.624 64.539 M 14 65 C 14 65.733, 14.300 66.033, 14.667 65.667 C 15.033 65.300, 15.033 64.700, 14.667 64.333 C 14.300 63.967, 14 64.267, 14 65 M 263 65 C 263 65.733, 263.300 66.033, 263.667 65.667 C 264.033 65.300, 264.033 64.700, 263.667 64.333 C 263.300 63.967, 263 64.267, 263 65 M 238 66 C 238 66.733, 238.300 67.033, 238.667 66.667 C 239.033 66.300, 239.033 65.700, 238.667 65.333 C 238.300 64.967, 238 65.267, 238 66 M 13.079 69.583 C 13.127 70.748, 13.364 70.985, 13.683 70.188 C 13.972 69.466, 13.936 68.603, 13.604 68.271 C 13.272 67.939, 13.036 68.529, 13.079 69.583 M 38 69 C 38 69.733, 38.300 70.033, 38.667 69.667 C 39.033 69.300, 39.033 68.700, 38.667 68.333 C 38.300 67.967, 38 68.267, 38 69 M 239 69 C 239 69.733, 239.300 70.033, 239.667 69.667 C 240.033 69.300, 240.033 68.700, 239.667 68.333 C 239.300 67.967, 239 68.267, 239 69 M 264.079 69.583 C 264.127 70.748, 264.364 70.985, 264.683 70.188 C 264.972 69.466, 264.936 68.603, 264.604 68.271 C 264.272 67.939, 264.036 68.529, 264.079 69.583 M 37 72 C 37 72.733, 37.300 73.033, 37.667 72.667 C 38.033 72.300, 38.033 71.700, 37.667 71.333 C 37.300 70.967, 37 71.267, 37 72 M 191.158 73 C 191.158 74.375, 191.385 74.938, 191.662 74.250 C 191.940 73.563, 191.940 72.438, 191.662 71.750 C 191.385 71.063, 191.158 71.625, 191.158 73 M 240 72 C 240 72.733, 240.300 73.033, 240.667 72.667 C 241.033 72.300, 241.033 71.700, 240.667 71.333 C 240.300 70.967, 240 71.267, 240 72 M 223 73 C 223 73.733, 223.300 74.033, 223.667 73.667 C 224.033 73.300, 224.033 72.700, 223.667 72.333 C 223.300 71.967, 223 72.267, 223 73 M 12.079 74.583 C 12.127 75.748, 12.364 75.985, 12.683 75.188 C 12.972 74.466, 12.936 73.603, 12.604 73.271 C 12.272 72.939, 12.036 73.529, 12.079 74.583 M 265.079 74.583 C 265.127 75.748, 265.364 75.985, 265.683 75.188 C 265.972 74.466, 265.936 73.603, 265.604 73.271 C 265.272 72.939, 265.036 73.529, 265.079 74.583 M 36.158 77 C 36.158 78.375, 36.385 78.938, 36.662 78.250 C 36.940 77.563, 36.940 76.438, 36.662 75.750 C 36.385 75.063, 36.158 75.625, 36.158 77 M 121.361 76.899 C 106.434 81.172, 81.715 99.975, 82.032 106.816 C 82.049 107.192, 83.024 106.150, 84.198 104.500 C 103.161 77.853, 137.443 68.579, 167 82.099 C 171.675 84.237, 174.600 85.264, 173.500 84.382 C 163.279 76.177, 137.041 72.412, 121.361 76.899 M 241.079 76.583 C 241.127 77.748, 241.364 77.985, 241.683 77.188 C 241.972 76.466, 241.936 75.603, 241.604 75.271 C 241.272 74.939, 241.036 75.529, 241.079 76.583 M 221.129 79.521 C 220.294 81.829, 218.531 83.934, 216.360 85.215 C 214.465 86.333, 213.133 87.466, 213.400 87.733 C 215.127 89.460, 223.684 79.551, 222.787 76.862 C 222.603 76.310, 221.857 77.507, 221.129 79.521 M 192 78 C 192 78.733, 192.300 79.033, 192.667 78.667 C 193.033 78.300, 193.033 77.700, 192.667 77.333 C 192.300 76.967, 192 77.267, 192 78 M 11.272 84 C 11.272 86.475, 11.467 87.487, 11.706 86.250 C 11.944 85.013, 11.944 82.987, 11.706 81.750 C 11.467 80.513, 11.272 81.525, 11.272 84 M 193.942 81.680 C 194.956 83.779, 200.031 88, 201.539 88 C 201.941 88, 200.972 86.991, 199.385 85.759 C 197.798 84.526, 195.687 82.613, 194.694 81.509 C 192.896 79.510, 192.892 79.511, 193.942 81.680 M 242.195 83.500 C 242.215 85.150, 242.439 85.704, 242.693 84.731 C 242.947 83.758, 242.930 82.408, 242.656 81.731 C 242.382 81.054, 242.175 81.850, 242.195 83.500 M 35.232 85 C 35.232 86.925, 35.438 87.713, 35.689 86.750 C 35.941 85.787, 35.941 84.213, 35.689 83.250 C 35.438 82.287, 35.232 83.075, 35.232 85 M 183.596 93.509 C 188.048 97.904, 192.686 102.850, 193.901 104.500 C 195.232 106.307, 195.676 106.605, 195.019 105.248 C 193.594 102.309, 182.570 90.540, 178.597 87.718 C 176.894 86.508, 179.143 89.114, 183.596 93.509 M 205.264 88.718 C 206.784 88.947, 209.034 88.941, 210.264 88.704 C 211.494 88.467, 210.250 88.279, 207.500 88.286 C 204.750 88.294, 203.744 88.488, 205.264 88.718 M 243.462 142 C 243.462 168.125, 243.591 178.813, 243.749 165.750 C 243.907 152.688, 243.907 131.313, 243.749 118.250 C 243.591 105.188, 243.462 115.875, 243.462 142 M 10.461 141.500 C 10.461 166.800, 10.591 177.007, 10.749 164.181 C 10.908 151.356, 10.907 130.656, 10.749 118.181 C 10.590 105.707, 10.461 116.200, 10.461 141.500 M 34.461 141 C 34.461 166.025, 34.590 176.263, 34.749 163.750 C 34.908 151.238, 34.908 130.763, 34.749 118.250 C 34.590 105.738, 34.461 115.975, 34.461 141 M 135.776 99.733 C 138.128 99.945, 141.728 99.942, 143.776 99.727 C 145.824 99.512, 143.900 99.339, 139.500 99.343 C 135.100 99.346, 133.424 99.522, 135.776 99.733 M 125 101.046 C 123.905 101.787, 124.309 101.880, 126.500 101.390 C 130.177 100.567, 130.975 99.995, 128.417 100.015 C 127.362 100.024, 125.825 100.487, 125 101.046 M 148.813 100.683 C 149.534 100.972, 150.397 100.936, 150.729 100.604 C 151.061 100.272, 150.471 100.036, 149.417 100.079 C 148.252 100.127, 148.015 100.364, 148.813 100.683 M 152.333 101.667 C 152.700 102.033, 153.300 102.033, 153.667 101.667 C 154.033 101.300, 153.733 101, 153 101 C 152.267 101, 151.967 101.300, 152.333 101.667 M 120.507 102.989 C 120.157 103.555, 120.558 103.723, 121.448 103.382 C 123.180 102.717, 123.497 102, 122.059 102 C 121.541 102, 120.843 102.445, 120.507 102.989 M 155 102.500 C 155 102.775, 155.225 103, 155.500 103 C 155.775 103, 156 102.775, 156 102.500 C 156 102.225, 155.775 102, 155.500 102 C 155.225 102, 155 102.225, 155 102.500 M 157 103.500 C 157 103.775, 157.225 104, 157.500 104 C 157.775 104, 158 103.775, 158 103.500 C 158 103.225, 157.775 103, 157.500 103 C 157.225 103, 157 103.225, 157 103.500 M 118 104.500 C 118 104.775, 118.225 105, 118.500 105 C 118.775 105, 119 104.775, 119 104.500 C 119 104.225, 118.775 104, 118.500 104 C 118.225 104, 118 104.225, 118 104.500 M 162.600 106.836 C 166.477 109.655, 171.865 115.247, 175.294 120.009 C 177.018 122.404, 177.018 122.372, 175.294 119.151 C 173.329 115.481, 161.598 104, 159.813 104 C 159.201 104, 160.455 105.276, 162.600 106.836 M 112.358 108.191 C 110.236 109.946, 107.396 112.759, 106.047 114.441 C 104.698 116.124, 106.498 114.823, 110.047 111.551 C 113.596 108.279, 116.688 105.467, 116.917 105.301 C 117.146 105.135, 117.082 105, 116.775 105 C 116.468 105, 114.480 106.436, 112.358 108.191 M 79.452 111.093 C 78.572 112.794, 78.030 114.363, 78.247 114.580 C 78.464 114.797, 79.390 113.406, 80.305 111.487 C 82.361 107.175, 81.649 106.845, 79.452 111.093 M 197.695 111.487 C 198.610 113.406, 199.536 114.797, 199.753 114.580 C 200.210 114.123, 197.175 108, 196.490 108 C 196.239 108, 196.781 109.569, 197.695 111.487 M 313.885 110.357 C 305.451 113.423, 300.337 119.364, 294.608 132.747 C 287.193 150.071, 284.623 152.949, 279.541 149.619 C 275.043 146.672, 276.452 139.566, 281.046 142.025 C 284.335 143.785, 289.223 140.384, 286.423 138.284 C 280.858 134.110, 269 139.773, 269 146.605 C 269 162.345, 291.475 158.680, 298.772 141.750 C 301.760 134.817, 310.801 138.054, 310.242 145.856 C 309.668 153.877, 311.372 156, 318.385 156 C 322.230 156, 331 151.885, 331 150.080 C 331 147.496, 327.989 146.863, 325.396 148.903 C 319.777 153.323, 319.670 150.562, 324.631 129.162 C 329.516 108.086, 329.636 109.547, 323 109.272 C 319.975 109.146, 315.873 109.634, 313.885 110.357 M 311.221 117.750 C 308.491 120.093, 302.052 130.932, 302.013 133.250 C 301.911 139.293, 312.775 133.060, 314.214 126.250 C 315.115 121.987, 316.158 117.713, 316.533 116.750 C 317.572 114.079, 314.915 114.579, 311.221 117.750 M 76.624 117.539 C 75.659 120.053, 75.943 120.702, 77.122 118.675 C 77.706 117.671, 77.973 116.639, 77.715 116.382 C 77.458 116.124, 76.966 116.645, 76.624 117.539 M 200.031 116.500 C 200.031 117.050, 200.467 118.175, 201 119 C 201.533 119.825, 201.969 120.050, 201.969 119.500 C 201.969 118.950, 201.533 117.825, 201 117 C 200.467 116.175, 200.031 115.950, 200.031 116.500 M 102 120 C 101.411 121.100, 101.155 122, 101.430 122 C 101.705 122, 102.411 121.100, 103 120 C 103.589 118.900, 103.845 118, 103.570 118 C 103.295 118, 102.589 118.900, 102 120 M 351.500 122.191 C 344.002 126.131, 332.361 138.792, 334.389 140.801 C 336.006 142.402, 336.416 142.155, 341.514 136.500 C 347.453 129.911, 347.651 129.986, 345.500 138 C 340.987 154.814, 348.107 159.670, 360.355 148.132 C 364.210 144.500, 364.210 144.500, 363.488 148 C 362.504 152.764, 362.969 152.379, 354.453 155.485 C 342.145 159.974, 338.432 164.432, 343.107 169.107 C 349.104 175.104, 364.641 169.520, 369.481 159.628 C 371.654 155.186, 372.911 153.853, 376.142 152.560 C 383.926 149.445, 387.169 143.348, 383.621 138.497 C 381.608 135.743, 376.376 138.965, 377.983 141.968 C 379.509 144.819, 379.247 145.792, 376.469 147.612 C 372.329 150.325, 372.890 143.532, 378.106 127.782 C 380.549 120.405, 380.509 120, 377.344 120 C 373.515 120, 368.301 124.345, 367.459 128.238 C 365.913 135.386, 358.177 147, 354.961 147 C 353.250 147, 354.307 138.758, 357.366 128.250 C 360.138 118.727, 359.447 118.014, 351.500 122.191 M 75.079 122.583 C 75.127 123.748, 75.364 123.985, 75.683 123.188 C 75.972 122.466, 75.936 121.603, 75.604 121.271 C 75.272 120.939, 75.036 121.529, 75.079 122.583 M 202.079 122.583 C 202.127 123.748, 202.364 123.985, 202.683 123.188 C 202.972 122.466, 202.936 121.603, 202.604 121.271 C 202.272 120.939, 202.036 121.529, 202.079 122.583 M 404 122.584 C 400.100 124.261, 386 137.713, 386 139.756 C 386 143.015, 389.093 141.782, 394.040 136.551 C 400.372 129.856, 400.236 129.788, 397.951 138.500 C 393.118 156.929, 403.095 163.193, 414.358 148.801 C 416.750 145.745, 416.750 145.745, 416.641 149.919 C 416.406 158.893, 425.494 158.305, 434.799 148.743 C 440.890 142.483, 438.463 139.736, 431.846 145.399 C 424.753 151.471, 424.182 147.092, 429.804 129.750 C 432.641 121, 432.641 121, 430.071 121.004 C 424.976 121.011, 421.671 124.207, 419.156 131.560 C 409.637 159.390, 403.403 152.531, 411.603 123.250 C 412.376 120.492, 409.458 120.236, 404 122.584 M 456.265 122.578 C 450.192 125.235, 437.584 139.019, 439.507 140.900 C 441.012 142.372, 441.591 142.022, 446.750 136.511 C 451.047 131.922, 452.200 131.104, 451.683 133.011 C 445.349 156.353, 451.134 163.673, 465.250 150.179 C 469 146.594, 469 146.594, 469 150.097 C 469 159.278, 481.562 157.446, 488.857 147.201 C 492.593 141.954, 489.129 140.748, 483.897 145.474 C 477.001 151.704, 476.586 146.389, 482.589 128.739 C 485.476 120.250, 485.433 121, 483.034 121 C 478.173 121, 474.176 124.165, 472.477 129.361 C 468.839 140.482, 461.069 151.348, 459.069 148.112 C 458.098 146.540, 461.599 130.422, 464.624 122.537 C 465.387 120.549, 460.852 120.572, 456.265 122.578 M 508.500 122.912 C 502.051 125.923, 489.464 139.310, 491.496 140.997 C 492.896 142.159, 493.872 141.574, 498.995 136.505 C 504.883 130.678, 504.883 130.678, 502.959 138.089 C 500.754 146.577, 500.460 153.060, 502.200 154.800 C 505.556 158.156, 513.882 155.205, 519.209 148.772 C 521.918 145.500, 521.918 145.500, 521.356 149.076 C 519.911 158.284, 529.466 158.613, 538.750 149.675 C 545.574 143.106, 543.414 139.103, 536.475 145.459 C 529.981 151.407, 529.229 148.229, 533.614 133.362 C 535.051 128.488, 536.454 123.713, 536.730 122.750 C 537.109 121.434, 536.646 121.001, 534.867 121.004 C 532.097 121.008, 526 124.481, 526 126.055 C 526 128.911, 519.577 142.071, 516.593 145.329 C 509.253 153.342, 509.283 148.109, 516.720 122.750 C 517.415 120.380, 513.767 120.452, 508.500 122.912 M 561.011 122.682 C 554.690 125.434, 542.434 138.866, 544.436 140.848 C 545.991 142.387, 546.484 142.088, 551.626 136.500 C 555.943 131.808, 557.015 131.045, 556.543 133 C 550.703 157.176, 555.994 163.807, 570.250 150.179 C 574 146.594, 574 146.594, 574 150.097 C 574 159.190, 585.716 157.617, 593.442 147.487 C 597.618 142.012, 594.338 140.559, 588.897 145.474 C 581.915 151.782, 581.632 145.040, 588.088 126.250 C 589.852 121.118, 589.849 121, 587.980 121 C 582.766 121, 579.105 124.176, 576.989 130.532 C 568.083 157.296, 560.047 152.848, 568.349 125.750 C 570.020 120.297, 568.219 119.544, 561.011 122.682 M 99.162 125.543 C 98.523 126.946, 98.018 128.635, 98.039 129.297 C 98.061 129.959, 98.743 128.969, 99.554 127.099 C 101.263 123.161, 100.902 121.726, 99.162 125.543 M 177.031 123.500 C 177.031 124.050, 177.467 125.175, 178 126 C 178.533 126.825, 178.969 127.050, 178.969 126.500 C 178.969 125.950, 178.533 124.825, 178 124 C 177.467 123.175, 177.031 122.950, 177.031 123.500 M 74 126 C 74 126.733, 74.300 127.033, 74.667 126.667 C 75.033 126.300, 75.033 125.700, 74.667 125.333 C 74.300 124.967, 74 125.267, 74 126 M 203 126 C 203 126.733, 203.300 127.033, 203.667 126.667 C 204.033 126.300, 204.033 125.700, 203.667 125.333 C 203.300 124.967, 203 125.267, 203 126 M 179 129 C 179 129.733, 179.300 130.033, 179.667 129.667 C 180.033 129.300, 180.033 128.700, 179.667 128.333 C 179.300 127.967, 179 128.267, 179 129 M 73.195 131.500 C 73.215 133.150, 73.439 133.704, 73.693 132.731 C 73.947 131.758, 73.930 130.408, 73.656 129.731 C 73.382 129.054, 73.175 129.850, 73.195 131.500 M 204.195 131.500 C 204.215 133.150, 204.439 133.704, 204.693 132.731 C 204.947 131.758, 204.930 130.408, 204.656 129.731 C 204.382 129.054, 204.175 129.850, 204.195 131.500 M 97 133 C 97 133.733, 97.300 134.033, 97.667 133.667 C 98.033 133.300, 98.033 132.700, 97.667 132.333 C 97.300 131.967, 97 132.267, 97 133 M 180.079 133.583 C 180.127 134.748, 180.364 134.985, 180.683 134.188 C 180.972 133.466, 180.936 132.603, 180.604 132.271 C 180.272 131.939, 180.036 132.529, 180.079 133.583 M 96.272 141 C 96.272 143.475, 96.467 144.488, 96.706 143.250 C 96.944 142.012, 96.944 139.988, 96.706 138.750 C 96.467 137.512, 96.272 138.525, 96.272 141 M 72.232 141 C 72.232 142.925, 72.438 143.713, 72.689 142.750 C 72.941 141.787, 72.941 140.213, 72.689 139.250 C 72.438 138.287, 72.232 139.075, 72.232 141 M 181.252 141.500 C 181.263 143.700, 181.468 144.482, 181.707 143.238 C 181.946 141.994, 181.937 140.194, 181.687 139.238 C 181.437 138.282, 181.241 139.300, 181.252 141.500 M 205.195 141.500 C 205.215 143.150, 205.439 143.704, 205.693 142.731 C 205.947 141.758, 205.930 140.408, 205.656 139.731 C 205.382 139.054, 205.175 139.850, 205.195 141.500 M 364 143.500 C 364 143.775, 364.225 144, 364.500 144 C 364.775 144, 365 143.775, 365 143.500 C 365 143.225, 364.775 143, 364.500 143 C 364.225 143, 364 143.225, 364 143.500 M 469 145.500 C 469 145.775, 469.225 146, 469.500 146 C 469.775 146, 470 145.775, 470 145.500 C 470 145.225, 469.775 145, 469.500 145 C 469.225 145, 469 145.225, 469 145.500 M 97.079 149.583 C 97.127 150.748, 97.364 150.985, 97.683 150.188 C 97.972 149.466, 97.936 148.603, 97.604 148.271 C 97.272 147.939, 97.036 148.529, 97.079 149.583 M 180.079 149.583 C 180.127 150.748, 180.364 150.985, 180.683 150.188 C 180.972 149.466, 180.936 148.603, 180.604 148.271 C 180.272 147.939, 180.036 148.529, 180.079 149.583 M 73.158 151 C 73.158 152.375, 73.385 152.938, 73.662 152.250 C 73.940 151.563, 73.940 150.438, 73.662 149.750 C 73.385 149.063, 73.158 149.625, 73.158 151 M 204.158 151 C 204.158 152.375, 204.385 152.938, 204.662 152.250 C 204.940 151.563, 204.940 150.438, 204.662 149.750 C 204.385 149.063, 204.158 149.625, 204.158 151 M 179.079 153.583 C 179.127 154.748, 179.364 154.985, 179.683 154.188 C 179.972 153.466, 179.936 152.603, 179.604 152.271 C 179.272 151.939, 179.036 152.529, 179.079 153.583 M 98 154 C 98 154.733, 98.300 155.033, 98.667 154.667 C 99.033 154.300, 99.033 153.700, 98.667 153.333 C 98.300 152.967, 98 153.267, 98 154 M 74.079 156.583 C 74.127 157.748, 74.364 157.985, 74.683 157.188 C 74.972 156.466, 74.936 155.603, 74.604 155.271 C 74.272 154.939, 74.036 155.529, 74.079 156.583 M 203.079 156.583 C 203.127 157.748, 203.364 157.985, 203.683 157.188 C 203.972 156.466, 203.936 155.603, 203.604 155.271 C 203.272 154.939, 203.036 155.529, 203.079 156.583 M 99 156.500 C 99 156.775, 99.225 157, 99.500 157 C 99.775 157, 100 156.775, 100 156.500 C 100 156.225, 99.775 156, 99.500 156 C 99.225 156, 99 156.225, 99 156.500 M 178 156.500 C 178 156.775, 178.225 157, 178.500 157 C 178.775 157, 179 156.775, 179 156.500 C 179 156.225, 178.775 156, 178.500 156 C 178.225 156, 178 156.225, 178 156.500 M 354.907 159.331 C 351.565 161.098, 350.500 162.242, 350.500 164.067 C 350.500 169.166, 357.753 166.015, 359.848 160.006 C 361.109 156.389, 360.601 156.319, 354.907 159.331 M 100.044 158.554 C 99.625 168.553, 123.329 184, 139.092 184 C 152.562 184, 176 170.480, 176 162.711 C 176 162.221, 174.215 164.079, 172.032 166.840 C 153.701 190.031, 115.689 187.089, 102.162 161.433 C 101.021 159.270, 100.069 157.974, 100.044 158.554 M 176.564 159.707 C 176.022 161.132, 176.136 161.247, 177.124 160.267 C 177.808 159.588, 178.115 158.781, 177.807 158.474 C 177.499 158.166, 176.940 158.721, 176.564 159.707 M 75 160 C 75 160.733, 75.300 161.033, 75.667 160.667 C 76.033 160.300, 76.033 159.700, 75.667 159.333 C 75.300 158.967, 75 159.267, 75 160 M 202 160 C 202 160.733, 202.300 161.033, 202.667 160.667 C 203.033 160.300, 203.033 159.700, 202.667 159.333 C 202.300 158.967, 202 159.267, 202 160 M 76 163.500 C 76 163.775, 76.225 164, 76.500 164 C 76.775 164, 77 163.775, 77 163.500 C 77 163.225, 76.775 163, 76.500 163 C 76.225 163, 76 163.225, 76 163.500 M 201 163.500 C 201 163.775, 201.225 164, 201.500 164 C 201.775 164, 202 163.775, 202 163.500 C 202 163.225, 201.775 163, 201.500 163 C 201.225 163, 201 163.225, 201 163.500 M 77 166 C 77 166.733, 77.300 167.033, 77.667 166.667 C 78.033 166.300, 78.033 165.700, 77.667 165.333 C 77.300 164.967, 77 165.267, 77 166 M 200 166 C 200 166.733, 200.300 167.033, 200.667 166.667 C 201.033 166.300, 201.033 165.700, 200.667 165.333 C 200.300 164.967, 200 165.267, 200 166 M 78 168.500 C 78 168.775, 78.225 169, 78.500 169 C 78.775 169, 79 168.775, 79 168.500 C 79 168.225, 78.775 168, 78.500 168 C 78.225 168, 78 168.225, 78 168.500 M 199 168.500 C 199 168.775, 199.225 169, 199.500 169 C 199.775 169, 200 168.775, 200 168.500 C 200 168.225, 199.775 168, 199.500 168 C 199.225 168, 199 168.225, 199 168.500 M 79 170.500 C 79 170.775, 79.225 171, 79.500 171 C 79.775 171, 80 170.775, 80 170.500 C 80 170.225, 79.775 170, 79.500 170 C 79.225 170, 79 170.225, 79 170.500 M 198 170.500 C 198 170.775, 198.225 171, 198.500 171 C 198.775 171, 199 170.775, 199 170.500 C 199 170.225, 198.775 170, 198.500 170 C 198.225 170, 198 170.225, 198 170.500 M 81.500 175 C 82.353 176.650, 83.276 178, 83.551 178 C 83.826 178, 83.353 176.650, 82.500 175 C 81.647 173.350, 80.724 172, 80.449 172 C 80.174 172, 80.647 173.350, 81.500 175 M 193.211 178.408 C 188.246 185.960, 181.259 192.492, 172.111 198.132 C 168.475 200.374, 166.360 201.923, 167.412 201.574 C 175.204 198.986, 190.844 184.961, 195.831 176.087 C 199.234 170.032, 197.998 171.127, 193.211 178.408 M 86.735 182.608 C 92.375 189.830, 107.877 202.012, 111.405 201.995 C 112.007 201.992, 109.350 200.119, 105.500 197.832 C 101.650 195.546, 95.131 190.261, 91.013 186.088 C 86.896 181.914, 84.970 180.349, 86.735 182.608 M 35.232 198 C 35.232 199.925, 35.438 200.713, 35.689 199.750 C 35.941 198.787, 35.941 197.213, 35.689 196.250 C 35.438 195.287, 35.232 196.075, 35.232 198 M 242.232 199 C 242.232 200.925, 242.438 201.713, 242.689 200.750 C 242.941 199.787, 242.941 198.213, 242.689 197.250 C 242.438 196.287, 242.232 197.075, 242.232 199 M 11.232 200 C 11.232 201.925, 11.438 202.713, 11.689 201.750 C 11.941 200.787, 11.941 199.213, 11.689 198.250 C 11.438 197.287, 11.232 198.075, 11.232 200 M 114 203 C 114.825 203.533, 115.950 203.969, 116.500 203.969 C 117.050 203.969, 116.825 203.533, 116 203 C 115.175 202.467, 114.050 202.031, 113.500 202.031 C 112.950 202.031, 113.175 202.467, 114 203 M 162 203 C 161.175 203.533, 160.950 203.969, 161.500 203.969 C 162.050 203.969, 163.175 203.533, 164 203 C 164.825 202.467, 165.050 202.031, 164.500 202.031 C 163.950 202.031, 162.825 202.467, 162 203 M 36.158 206 C 36.158 207.375, 36.385 207.938, 36.662 207.250 C 36.940 206.563, 36.940 205.438, 36.662 204.750 C 36.385 204.063, 36.158 204.625, 36.158 206 M 119.500 205 C 120.600 205.473, 122.175 205.859, 123 205.859 C 123.945 205.859, 123.761 205.542, 122.500 205 C 121.400 204.527, 119.825 204.141, 119 204.141 C 118.055 204.141, 118.239 204.458, 119.500 205 M 155.500 205 C 154.239 205.542, 154.055 205.859, 155 205.859 C 155.825 205.859, 157.400 205.473, 158.500 205 C 159.761 204.458, 159.945 204.141, 159 204.141 C 158.175 204.141, 156.600 204.527, 155.500 205 M 241.079 206.583 C 241.127 207.748, 241.364 207.985, 241.683 207.188 C 241.972 206.466, 241.936 205.603, 241.604 205.271 C 241.272 204.939, 241.036 205.529, 241.079 206.583 M 128.500 207.071 C 132.448 207.874, 146.725 208.339, 145.917 207.639 C 145.688 207.440, 140.775 207.048, 135 206.767 C 128.322 206.443, 125.956 206.554, 128.500 207.071 M 148.250 206.689 C 149.213 206.941, 150.787 206.941, 151.750 206.689 C 152.713 206.438, 151.925 206.232, 150 206.232 C 148.075 206.232, 147.287 206.438, 148.250 206.689 M 265.079 207.583 C 265.127 208.748, 265.364 208.985, 265.683 208.188 C 265.972 207.466, 265.936 206.603, 265.604 206.271 C 265.272 205.939, 265.036 206.529, 265.079 207.583 M 12.079 208.583 C 12.127 209.748, 12.364 209.985, 12.683 209.188 C 12.972 208.466, 12.936 207.603, 12.604 207.271 C 12.272 206.939, 12.036 207.529, 12.079 208.583 M 37.079 210.583 C 37.127 211.748, 37.364 211.985, 37.683 211.188 C 37.972 210.466, 37.936 209.603, 37.604 209.271 C 37.272 208.939, 37.036 209.529, 37.079 210.583 M 240 211 C 240 211.733, 240.300 212.033, 240.667 211.667 C 241.033 211.300, 241.033 210.700, 240.667 210.333 C 240.300 209.967, 240 210.267, 240 211 M 264.079 212.583 C 264.127 213.748, 264.364 213.985, 264.683 213.188 C 264.972 212.466, 264.936 211.603, 264.604 211.271 C 264.272 210.939, 264.036 211.529, 264.079 212.583 M 13.079 213.583 C 13.127 214.748, 13.364 214.985, 13.683 214.188 C 13.972 213.466, 13.936 212.603, 13.604 212.271 C 13.272 211.939, 13.036 212.529, 13.079 213.583 M 38 214 C 38 214.733, 38.300 215.033, 38.667 214.667 C 39.033 214.300, 39.033 213.700, 38.667 213.333 C 38.300 212.967, 38 213.267, 38 214 M 239 214 C 239 214.733, 239.300 215.033, 239.667 214.667 C 240.033 214.300, 240.033 213.700, 239.667 213.333 C 239.300 212.967, 239 213.267, 239 214 M 39.027 216.500 C 38.951 225.205, 56.545 239.852, 71.789 243.773 C 80.443 246, 194.172 246.412, 204.411 244.254 C 218.409 241.304, 231.305 232.164, 236.875 221.245 C 240.097 214.929, 239.381 214.742, 235.937 221 C 224.116 242.483, 214.162 244.955, 139.356 244.983 C 64.184 245.010, 53.885 242.472, 42.064 221 C 40.399 217.975, 39.032 215.950, 39.027 216.500 M 263 217 C 263 217.733, 263.300 218.033, 263.667 217.667 C 264.033 217.300, 264.033 216.700, 263.667 216.333 C 263.300 215.967, 263 216.267, 263 217 M 14 218 C 14 218.733, 14.300 219.033, 14.667 218.667 C 15.033 218.300, 15.033 217.700, 14.667 217.333 C 14.300 216.967, 14 217.267, 14 218 M 262 220 C 262 220.733, 262.300 221.033, 262.667 220.667 C 263.033 220.300, 263.033 219.700, 262.667 219.333 C 262.300 218.967, 262 219.267, 262 220 M 15 221 C 15 221.733, 15.300 222.033, 15.667 221.667 C 16.033 221.300, 16.033 220.700, 15.667 220.333 C 15.300 219.967, 15 220.267, 15 221 M 16.031 223.500 C 16.031 224.050, 16.467 225.175, 17 226 C 17.533 226.825, 17.969 227.050, 17.969 226.500 C 17.969 225.950, 17.533 224.825, 17 224 C 16.467 223.175, 16.031 222.950, 16.031 223.500 M 261 223.500 C 261 223.775, 261.225 224, 261.500 224 C 261.775 224, 262 223.775, 262 223.500 C 262 223.225, 261.775 223, 261.500 223 C 261.225 223, 261 223.225, 261 223.500 M 260 226 C 260 226.733, 260.300 227.033, 260.667 226.667 C 261.033 226.300, 261.033 225.700, 260.667 225.333 C 260.300 224.967, 260 225.267, 260 226 M 18 228.383 C 18 229.456, 20.975 235, 21.551 235 C 21.826 235, 21.308 233.537, 20.399 231.750 C 18.542 228.100, 18 227.339, 18 228.383 M 259 228.500 C 259 228.775, 259.225 229, 259.500 229 C 259.775 229, 260 228.775, 260 228.500 C 260 228.225, 259.775 228, 259.500 228 C 259.225 228, 259 228.225, 259 228.500 M 258 230.500 C 258 230.775, 258.225 231, 258.500 231 C 258.775 231, 259 230.775, 259 230.500 C 259 230.225, 258.775 230, 258.500 230 C 258.225 230, 258 230.225, 258 230.500 M 257 232.500 C 257 232.775, 257.225 233, 257.500 233 C 257.775 233, 258 232.775, 258 232.500 C 258 232.225, 257.775 232, 257.500 232 C 257.225 232, 257 232.225, 257 232.500 M 252.209 239.934 C 247.320 246.867, 240.497 252.998, 231.828 258.250 C 228.423 260.313, 226.131 262, 226.735 262 C 231.284 262, 250.572 245.183, 255.307 237.088 C 258.177 232.182, 256.755 233.488, 252.209 239.934 M 22.970 237.944 C 23.543 239.014, 24.505 240.194, 25.109 240.567 C 25.713 240.941, 25.434 240.066, 24.489 238.623 C 22.487 235.568, 21.451 235.105, 22.970 237.944 M 33.073 249.162 C 36.775 252.826, 40.860 256.339, 42.152 256.967 C 43.821 257.780, 43.633 257.453, 41.500 255.838 C 39.850 254.588, 35.765 251.076, 32.421 248.033 C 26.530 242.670, 26.550 242.705, 33.073 249.162 M 45 258.640 C 45 259.314, 56.050 264.283, 56.516 263.817 C 56.729 263.604, 54.225 262.246, 50.952 260.799 C 47.678 259.352, 45 258.381, 45 258.640 M 222 263 C 221.175 263.533, 220.950 263.969, 221.500 263.969 C 222.050 263.969, 223.175 263.533, 224 263 C 224.825 262.467, 225.050 262.031, 224.500 262.031 C 223.950 262.031, 222.825 262.467, 222 263 M 59.500 265 C 62.249 266.181, 63.828 266.181, 62 265 C 61.175 264.467, 59.825 264.055, 59 264.086 C 58.011 264.122, 58.181 264.433, 59.500 265 M 218.333 264.667 C 218.700 265.033, 219.300 265.033, 219.667 264.667 C 220.033 264.300, 219.733 264, 219 264 C 218.267 264, 217.967 264.300, 218.333 264.667 M 214.813 265.683 C 215.534 265.972, 216.397 265.936, 216.729 265.604 C 217.061 265.272, 216.471 265.036, 215.417 265.079 C 214.252 265.127, 214.015 265.364, 214.813 265.683 M 66.500 267 C 70.730 268.076, 74.361 268.076, 71 267 C 69.625 266.560, 67.375 266.208, 66 266.218 C 63.754 266.235, 63.805 266.314, 66.500 267 M 210.813 266.683 C 211.534 266.972, 212.397 266.936, 212.729 266.604 C 213.061 266.272, 212.471 266.036, 211.417 266.079 C 210.252 266.127, 210.015 266.364, 210.813 266.683 M 205.269 267.693 C 206.242 267.947, 207.592 267.930, 208.269 267.656 C 208.946 267.382, 208.150 267.175, 206.500 267.195 C 204.850 267.215, 204.296 267.439, 205.269 267.693 M 76.269 268.693 C 77.242 268.947, 78.592 268.930, 79.269 268.656 C 79.946 268.382, 79.150 268.175, 77.500 268.195 C 75.850 268.215, 75.296 268.439, 76.269 268.693 M 198.250 268.689 C 199.213 268.941, 200.787 268.941, 201.750 268.689 C 202.713 268.438, 201.925 268.232, 200 268.232 C 198.075 268.232, 197.287 268.438, 198.250 268.689" stroke="none" fill="#6e5ea9" fill-rule="evenodd"/><path d="M 92.500 14.045 C 41.646 16.020, 16.436 37.300, 11.995 82 C 10.746 94.573, 10.745 191.143, 11.994 202 C 16.139 238.035, 35.841 259.785, 71 267.140 C 82.167 269.476, 197.786 269.084, 209 266.672 C 236.947 260.661, 256.053 242.933, 263.613 216 C 265.927 207.759, 267.080 85.995, 264.964 73.500 C 255.942 20.247, 223.224 8.968, 92.500 14.045 M 95.637 37.103 C 40.439 39.728, 33.997 50.576, 34.002 140.895 C 34.007 208.910, 35.891 219.474, 50.382 232.718 C 64.025 245.187, 66.181 245.500, 138.500 245.500 C 241.531 245.500, 242.812 244.361, 243.722 151.932 C 244.880 34.358, 239.593 30.259, 95.637 37.103 M 199.290 59.965 C 192.435 64.144, 190.019 75.154, 194.614 81.276 C 206.064 96.536, 228.945 83.687, 221.096 66.405 C 217.541 58.577, 206.779 55.398, 199.290 59.965 M 123.175 77.459 C 74.661 89.199, 56.721 150.977, 91.500 186.533 C 129.060 224.933, 192.973 206.250, 203.609 153.761 C 212.956 107.632, 169.365 66.281, 123.175 77.459 M 128.987 99.863 C 108.701 104.164, 93.354 126.987, 96.932 147.533 C 103.176 183.385, 146.450 196.538, 170.425 169.872 C 198.125 139.064, 169.800 91.211, 128.987 99.863" stroke="none" fill="#076ced" fill-rule="evenodd"/></svg>